HIERARCHY
ROOT joint_0
{
	OFFSET 0.000000 0.000000 0.000000
	CHANNELS 6 Xposition Yposition Zposition Zrotation Yrotation Xrotation 
	JOINT joint_1
	{
		OFFSET 8.185791 -2.713684 100.414917
		CHANNELS 3 Zrotation Yrotation Xrotation
		JOINT joint_2
		{
			OFFSET -4.376465 -1.111145 91.934082
			CHANNELS 3 Zrotation Yrotation Xrotation
			JOINT joint_3
			{
				OFFSET -6.985840 -1.054016 91.669922
				CHANNELS 3 Zrotation Yrotation Xrotation
				JOINT joint_4
				{
					OFFSET 0.150391 -4.451904 123.526001
					CHANNELS 3 Zrotation Yrotation Xrotation
					JOINT joint_5
					{
						OFFSET 19.754150 -8.123901 80.916992
						CHANNELS 3 Zrotation Yrotation Xrotation
						End Site
						{
							OFFSET 0.000000 0.000000 0.000000
						}
					}
				}
				JOINT joint_6
				{
					OFFSET -6.477539 -28.517334 68.237061
					CHANNELS 3 Zrotation Yrotation Xrotation
					JOINT joint_7
					{
						OFFSET -20.564453 -115.426208 -21.139038
						CHANNELS 3 Zrotation Yrotation Xrotation
						JOINT joint_8
						{
							OFFSET 18.981934 -19.826172 -267.898926
							CHANNELS 3 Zrotation Yrotation Xrotation
							JOINT joint_9
							{
								OFFSET 11.562744 -19.325867 -235.478027
								CHANNELS 3 Zrotation Yrotation Xrotation
								End Site
								{
									OFFSET 0.000000 0.000000 0.000000
								}
							}
						}
					}
				}
				JOINT joint_10
				{
					OFFSET 7.033936 23.504700 70.088989
					CHANNELS 3 Zrotation Yrotation Xrotation
					JOINT joint_11
					{
						OFFSET 36.629639 112.486816 -14.036987
						CHANNELS 3 Zrotation Yrotation Xrotation
						JOINT joint_12
						{
							OFFSET 41.355225 -7.048523 -266.019897
							CHANNELS 3 Zrotation Yrotation Xrotation
							JOINT joint_13
							{
								OFFSET 5.858887 29.785156 -234.603027
								CHANNELS 3 Zrotation Yrotation Xrotation
								End Site
								{
									OFFSET 0.000000 0.000000 0.000000
								}
							}
						}
					}
				}
			}
		}
	}
	JOINT joint_14
	{
		OFFSET -8.917725 -79.985535 -99.035034
		CHANNELS 3 Zrotation Yrotation Xrotation
		JOINT joint_15
		{
			OFFSET -32.739502 -31.478882 -502.570984
			CHANNELS 3 Zrotation Yrotation Xrotation
			JOINT joint_16
			{
				OFFSET 7.393066 -29.352966 -399.008011
				CHANNELS 3 Zrotation Yrotation Xrotation
				JOINT joint_17
				{
					OFFSET 178.013916 -26.060303 -71.875002
					CHANNELS 3 Zrotation Yrotation Xrotation
					End Site
					{
						OFFSET 0.000000 0.000000 0.000000
					}
				}
			}
		}
	}
	JOINT joint_18
	{
		OFFSET 1.900879 81.159851 -98.481018
		CHANNELS 3 Zrotation Yrotation Xrotation
		JOINT joint_19
		{
			OFFSET -15.120850 31.602051 -503.400024
			CHANNELS 3 Zrotation Yrotation Xrotation
			JOINT joint_20
			{
				OFFSET -16.653076 23.887695 -399.091988
				CHANNELS 3 Zrotation Yrotation Xrotation
				JOINT joint_21
				{
					OFFSET 179.618164 -1.217651 -72.592001
					CHANNELS 3 Zrotation Yrotation Xrotation
					End Site
					{
						OFFSET 0.000000 0.000000 0.000000
					}
				}
			}
		}
	}
}
MOTION
Frames: 7
Frame Time: 0.016667
-2836.622803 743.374695 1096.692993 3.100425 -3.653521 -1.239341 3.255977 3.889904 -0.122691 3.235587 -0.839811 0.139243 3.234592 0.804269 -0.130762 0.059860 1.922980 0.483245 0.000000 0.000000 0.000000 0.294132 -0.580434 1.379542 0.135880 -0.600302 1.659258 -0.005951 0.140369 0.161606 0.000000 0.000000 0.000000 -0.114282 1.386082 -1.380947 0.662153 -0.494652 4.660381 -1.318292 -4.637719 -9.225467 0.000000 0.000000 0.000000 0.147339 3.319386 0.583100 0.096442 2.672075 2.097176 0.401105 -1.838311 -0.107566 0.000000 0.000000 0.000000 1.944688 3.331496 1.882204 2.120496 4.589307 -0.653811 1.615302 -3.680401 0.626191 0.000000 0.000000 0.000000 
-2836.875977 743.638550 1096.678955 3.108368 -3.692101 -1.244604 3.253666 3.895372 -0.152187 3.234689 -0.841840 0.145736 3.232948 0.805872 -0.134473 0.059421 1.942763 0.492142 0.000000 0.000000 0.000000 0.289604 -0.556061 1.418083 0.134754 -0.571497 1.668759 -0.005464 0.137395 0.166009 0.000000 0.000000 0.000000 -0.113477 1.403298 -1.364906 0.662341 -0.478156 4.678106 -1.319680 -4.644545 -9.226831 0.000000 0.000000 0.000000 0.147743 3.329803 0.559003 0.091580 2.712065 2.123681 0.399569 -1.845275 -0.109210 0.000000 0.000000 0.000000 1.944201 3.348381 1.876824 2.120265 4.609403 -0.662347 1.614543 -3.670935 0.625955 0.000000 0.000000 0.000000 
-2837.121094 743.903992 1096.662964 3.115614 -3.728952 -1.250387 3.250987 3.897330 -0.178857 3.233240 -0.842874 0.150965 3.230882 0.807660 -0.137648 0.058960 1.962468 0.501075 0.000000 0.000000 0.000000 0.287140 -0.531101 1.456833 0.133530 -0.541582 1.677709 -0.005009 0.134579 0.170025 0.000000 0.000000 0.000000 -0.108158 1.420928 -1.349340 0.662286 -0.461742 4.695086 -1.321275 -4.651808 -9.228662 0.000000 0.000000 0.000000 0.148368 3.338563 0.534620 0.086693 2.752056 2.152016 0.397925 -1.851383 -0.110773 0.000000 0.000000 0.000000 1.944112 3.363340 1.871801 2.120609 4.630470 -0.670679 1.614306 -3.661776 0.625927 0.000000 0.000000 0.000000 
-2837.360840 744.178223 1096.645996 3.119826 -3.761601 -1.255502 3.250031 3.896249 -0.203247 3.233338 -0.845962 0.155068 3.230574 0.810198 -0.139733 0.057869 1.982843 0.512708 0.000000 0.000000 0.000000 0.281665 -0.504438 1.494381 0.132238 -0.510595 1.686005 -0.004299 0.129411 0.174694 0.000000 0.000000 0.000000 -0.100789 1.438732 -1.335374 0.661701 -0.445502 4.710575 -1.323441 -4.660409 -9.232347 0.000000 0.000000 0.000000 0.150809 3.342793 0.507648 0.082987 2.791787 2.183188 0.397335 -1.856373 -0.111749 0.000000 0.000000 0.000000 1.944960 3.373949 1.864503 2.122027 4.652216 -0.676924 1.615233 -3.651755 0.626373 0.000000 0.000000 0.000000 
-2837.593506 744.458130 1096.629028 3.121988 -3.791341 -1.260927 3.249470 3.891339 -0.224407 3.233662 -0.848421 0.158653 3.230517 0.812862 -0.141914 0.056596 2.004348 0.525396 0.000000 0.000000 0.000000 0.277581 -0.476921 1.532221 0.130809 -0.478181 1.692991 -0.003481 0.123026 0.179180 0.000000 0.000000 0.000000 -0.088817 1.456778 -1.322532 0.660826 -0.429625 4.724951 -1.325883 -4.669368 -9.236880 0.000000 0.000000 0.000000 0.154120 3.343989 0.479616 0.079747 2.831245 2.216740 0.397044 -1.859733 -0.112365 0.000000 0.000000 0.000000 1.946621 3.381439 1.856590 2.124433 4.674885 -0.681991 1.617201 -3.640794 0.627243 0.000000 0.000000 0.000000 
-2837.818848 744.736694 1096.608032 3.124060 -3.820962 -1.266104 3.248671 3.885849 -0.245494 3.233702 -0.851492 0.161570 3.230340 0.815525 -0.142753 0.055159 2.023606 0.537975 0.000000 0.000000 0.000000 0.272250 -0.448680 1.568965 0.129403 -0.445586 1.700644 -0.002757 0.117419 0.183214 0.000000 0.000000 0.000000 -0.077895 1.476278 -1.310870 0.660032 -0.413058 4.740906 -1.328654 -4.679768 -9.243096 0.000000 0.000000 0.000000 0.157507 3.345308 0.450502 0.076374 2.870919 2.252336 0.396608 -1.862999 -0.113026 0.000000 0.000000 0.000000 1.948430 3.389175 1.848562 2.126963 4.697472 -0.687143 1.619314 -3.629504 0.628174 0.000000 0.000000 0.000000 
-2838.036621 745.008972 1096.583008 3.127742 -3.852529 -1.271988 3.245510 3.880853 -0.266182 3.231350 -0.853237 0.164296 3.227684 0.817371 -0.144475 0.053220 2.039407 0.551421 0.000000 0.000000 0.000000 0.271475 -0.420910 1.606855 0.128012 -0.412582 1.709170 -0.002404 0.114568 0.184938 0.000000 0.000000 0.000000 -0.065687 1.498061 -1.298725 0.659699 -0.395399 4.760610 -1.332062 -4.692436 -9.253863 0.000000 0.000000 0.000000 0.159900 3.349342 0.422438 0.072242 2.910685 2.288018 0.395444 -1.866578 -0.114027 0.000000 0.000000 0.000000 1.949930 3.399364 1.842063 2.129102 4.719763 -0.692975 1.621052 -3.617932 0.628954 0.000000 0.000000 0.000000 
